HIERARCHY
ROOT Hips
{
    OFFSET 0.000000 0.000000 0.000000
    CHANNELS 6 Xposition Yposition Zposition Zrotation Xrotation Yrotation
    JOINT Spine
    {
        OFFSET -0.000000 7.246840 0.000000
        CHANNELS 3 Zrotation Xrotation Yrotation
        JOINT Spine1
        {
            OFFSET -0.000000 20.289354 0.000000
            CHANNELS 3 Zrotation Xrotation Yrotation
            JOINT Neck
            {
                OFFSET -0.000000 20.206032 1.836912
                CHANNELS 3 Zrotation Xrotation Yrotation
                JOINT Head
                {
                    OFFSET -0.000000 12.372654 -1.767522
                    CHANNELS 3 Zrotation Xrotation Yrotation
                    End Site
                    {
                        OFFSET -0.000000 22.094025 0.000000
                    }
                }
            }
            JOINT LeftShoulder
            {
                OFFSET 3.465871 17.201674 -0.568930
                CHANNELS 3 Zrotation Xrotation Yrotation
                JOINT LeftArm
                {
                    OFFSET 14.070313 0.000000 0.000000
                    CHANNELS 3 Zrotation Xrotation Yrotation
                    JOINT LeftForeArm
                    {
                        OFFSET 26.549477 0.000000 0.000000
                        CHANNELS 3 Zrotation Xrotation Yrotation
                        JOINT LeftHand
                        {
                            OFFSET 18.880413 0.000000 0.000000
                            CHANNELS 3 Zrotation Xrotation Yrotation
                            End Site
                            {
                                OFFSET 13.256415 0.000000 0.000000
                            }
                        }
                    }
                }
            }
            JOINT RightShoulder
            {
                OFFSET -3.526370 17.201674 -0.568930
                CHANNELS 3 Zrotation Xrotation Yrotation
                JOINT RightArm
                {
                    OFFSET -14.070313 0.000000 0.000000
                    CHANNELS 3 Zrotation Xrotation Yrotation
                    JOINT RightForeArm
                    {
                        OFFSET -26.549477 0.000000 0.000000
                        CHANNELS 3 Zrotation Xrotation Yrotation
                        JOINT RightHand
                        {
                            OFFSET -18.880413 0.000000 0.000000
                            CHANNELS 3 Zrotation Xrotation Yrotation
                            End Site
                            {
                                OFFSET -13.256415 0.000000 0.000000
                            }
                        }
                    }
                }
            }
        }
    }
    JOINT LeftUpLeg
    {
        OFFSET 8.837609 0.000000 0.000000
        CHANNELS 3 Zrotation Xrotation Yrotation
        JOINT LeftLeg
        {
            OFFSET -0.000000 -41.345005 0.000000
            CHANNELS 3 Zrotation Xrotation Yrotation
            JOINT LeftFoot
            {
                OFFSET -0.000000 -35.500874 0.000000
                CHANNELS 3 Zrotation Xrotation Yrotation
                JOINT LeftToeBase
                {
                    OFFSET -0.000000 -5.744446 13.256415
                    CHANNELS 3 Zrotation Xrotation Yrotation
                    End Site
                    {
                        OFFSET -0.000000 0.000000 3.535044
                    }
                }
            }
        }
    }
    JOINT RightUpLeg
    {
        OFFSET -8.837609 0.000000 0.000000
        CHANNELS 3 Zrotation Xrotation Yrotation
        JOINT RightLeg
        {
            OFFSET -0.000000 -41.345005 0.000000
            CHANNELS 3 Zrotation Xrotation Yrotation
            JOINT RightFoot
            {
                OFFSET -0.000000 -35.500874 0.000000
                CHANNELS 3 Zrotation Xrotation Yrotation
                JOINT RightToeBase
                {
                    OFFSET -0.000000 -5.744446 13.256415
                    CHANNELS 3 Zrotation Xrotation Yrotation
                    End Site
                    {
                        OFFSET -0.000000 0.000000 3.535044
                    }
                }
            }
        }
    }
}
MOTION
Frames:    5
Frame Time:    0.010000
9.462214    81.169739    -18.653349    6.823143    3.030532    11.540904    -4.934429    -7.554786    -1.584759    -8.501978    10.117009    -0.504857    7.663225    26.464571    -16.413591    11.894889    1.530888    -14.831311    12.073874    -4.699888    -1.482241    21.582432    60.723255    -118.739182    -11.211553    -23.352865    -53.500092    -46.862621    -21.768557    -16.904093    -1.279981    -8.378864    23.962111    17.816084    67.011383    81.363892    -6.459544    -24.255838    41.541336    61.360184    -11.494397    18.308189    -10.802267    7.126001    -6.483448    -2.245923    -9.152736    -14.857504    6.578223    3.813985    -0.788969    0.615519    -0.690647    -0.865267    1.909230    -23.382843    -22.052271    -1.481183    44.006966    8.208982    7.469746    18.001526    1.991733    -4.877580    -25.481544    12.812062    
9.536602    81.154228    -18.707067    6.795247    2.876187    10.177794    -4.838005    -7.548623    -1.731855    -8.411497    10.192281    -0.661044    7.383735    26.123230    -16.331781    11.946054    2.848919    -14.929809    12.238811    -4.629545    -1.601745    21.350359    60.730656    -118.608589    -11.307699    -23.494034    -53.401810    -46.818008    -21.809593    -17.251434    -1.253334    -8.334129    23.916000    17.928560    66.867233    81.374763    -6.300577    -24.193762    41.338314    61.209492    -11.583611    18.222025    -10.920744    7.144144    -5.943895    -2.208480    -9.238049    -14.333461    6.621066    3.760739    -0.610102    0.569727    -0.671415    -0.800803    2.018063    -23.291298    -21.862095    -1.310464    44.010563    8.209275    6.877103    18.512123    2.552818    -5.050233    -25.583244    13.291423    
9.576477    81.139099    -18.760269    6.794619    2.756210    8.869859    -4.970919    -7.559320    -1.880667    -8.069518    10.289801    -0.824355    7.265586    26.089058    -16.284489    11.913748    3.580628    -14.974023    12.190558    -4.638618    -1.707660    22.163658    60.544720    -119.297264    -11.277185    -23.904633    -53.575844    -46.685238    -22.221346    -17.328844    -1.326053    -8.284732    23.791117    18.180256    66.833130    81.156654    -6.304804    -24.205595    41.353123    61.102379    -11.644002    18.176498    -11.000039    7.121945    -5.506310    -2.255917    -9.299272    -13.831641    6.683861    3.718126    -0.370615    0.527773    -0.666178    -0.741811    2.126565    -23.252625    -21.711994    -1.244724    44.052277    8.213754    6.332832    18.978125    3.095540    -5.237533    -25.641411    13.797788    
9.585154    81.111679    -18.870703    6.713223    2.785574    7.568311    -4.999438    -7.617952    -2.046063    -7.912300    10.303025    -0.998575    7.443104    25.994942    -16.210239    11.621389    4.262072    -14.986899    12.300117    -4.542329    -1.758726    21.942270    60.351017    -118.992493    -11.673298    -23.838108    -53.864880    -46.367874    -22.529497    -17.081751    -1.209821    -8.276564    23.699852    19.681326    66.674980    79.641006    -5.904001    -23.750357    41.664734    60.823860    -11.441593    18.015507    -11.009443    6.860457    -4.977951    -2.511752    -9.335482    -13.689237    6.924507    3.797554    0.083418    0.507600    -0.641565    -0.713350    2.348374    -23.445711    -21.533081    -1.266308    44.130177    8.388504    5.808067    19.464619    3.423620    -5.454361    -25.599417    14.350915    
9.613968    81.103134    -18.930710    6.725052    2.679783    6.193887    -5.069328    -7.669752    -2.166726    -7.736498    10.473674    -1.116557    7.291590    25.901264    -16.067938    11.604132    5.002535    -14.936292    12.346988    -4.538205    -1.800982    21.900913    60.257828    -118.938385    -10.699955    -23.532717    -53.414444    -48.050037    -21.460655    -17.002176    -1.222159    -8.239595    23.584497    18.344891    66.837036    80.920036    -6.424618    -24.296871    41.394073    60.861652    -11.634042    18.364985    -11.121056    6.809933    -4.305608    -2.605805    -9.436930    -13.352191    7.057564    3.817333    0.319192    0.474344    -0.613239    -0.666500    2.494740    -23.423492    -21.217117    -1.165071    44.180122    8.571133    5.397984    19.909393    3.664304    -5.635567    -25.673300    14.846996    
